<svg width="40" height="37" viewBox="0 0 40 37" fill="none" xmlns="http://www.w3.org/2000/svg">
<g clip-path="url(#clip0_107_9)">
<path d="M39 18.5C39 28.093 30.5682 36 20 36C9.43175 36 1 28.093 1 18.5C1 8.907 9.43175 1 20 1C30.5682 1 39 8.907 39 18.5Z" fill="white" stroke="#84EE73" stroke-width="2"/>
<path d="M20.7071 8.29289C20.3166 7.90237 19.6834 7.90237 19.2929 8.29289L12.9289 14.6569C12.5384 15.0474 12.5384 15.6805 12.9289 16.0711C13.3195 16.4616 13.9526 16.4616 14.3431 16.0711L20 10.4142L25.6569 16.0711C26.0474 16.4616 26.6805 16.4616 27.0711 16.0711C27.4616 15.6805 27.4616 15.0474 27.0711 14.6569L20.7071 8.29289ZM21 27L21 9L19 9L19 27L21 27Z" fill="#84EE73"/>
</g>
<defs>
<clipPath id="clip0_107_9">
<rect width="40" height="37" fill="white"/>
</clipPath>
</defs>
</svg>
