<svg width="40" height="37" viewBox="0 0 40 37" fill="none" xmlns="http://www.w3.org/2000/svg">
<g clip-path="url(#clip0_108_6)">
<path d="M39 18.5C39 28.093 30.5683 36 20 36C9.43175 36 1 28.093 1 18.5C1 8.907 9.43175 1 20 1C30.5683 1 39 8.907 39 18.5Z" fill="white" stroke="#F04747" stroke-width="2"/>
<path d="M19.3537 27.7113C19.7466 28.0994 20.3798 28.0955 20.7678 27.7025L27.0919 21.2988C27.4799 20.9059 27.476 20.2727 27.083 19.8846C26.69 19.4966 26.0569 19.5005 25.6688 19.8935L20.0475 25.5856L14.3553 19.9643C13.9624 19.5762 13.3292 19.5802 12.9411 19.9732C12.5531 20.3661 12.557 20.9993 12.95 21.3873L19.3537 27.7113ZM18.9437 9.00644L19.0563 27.0061L21.0563 26.9936L20.9437 8.99392L18.9437 9.00644Z" fill="#F04747"/>
</g>
<defs>
<clipPath id="clip0_108_6">
<rect width="40" height="37" fill="white"/>
</clipPath>
</defs>
</svg>
