<svg width="40" height="37" viewBox="0 0 40 37" fill="none" xmlns="http://www.w3.org/2000/svg">
<g clip-path="url(#clip0_108_9)">
<path d="M24.744 25.336C24.744 24.44 24.5413 23.6933 24.136 23.096C23.7307 22.4987 23.208 21.9867 22.568 21.56C21.9493 21.112 21.2987 20.696 20.616 20.312V30.104C21.8747 29.6773 22.8773 29.1333 23.624 28.472C24.3707 27.8107 24.744 26.7653 24.744 25.336ZM19.464 7.96C18.248 8.216 17.2773 8.64267 16.552 9.24C15.848 9.83733 15.496 10.808 15.496 12.152C15.496 12.92 15.6987 13.592 16.104 14.168C16.5307 14.744 17.0427 15.2453 17.64 15.672C18.2587 16.0987 18.8667 16.4933 19.464 16.856V7.96ZM27.976 24.856C27.976 25.9227 27.7627 26.8293 27.336 27.576C26.9307 28.3013 26.3653 28.9093 25.64 29.4C24.936 29.8693 24.1467 30.232 23.272 30.488C22.3973 30.744 21.512 30.9253 20.616 31.032V33.432H19.464V31.096C18.824 31.0747 18.2053 31.032 17.608 30.968C17.0107 30.8827 16.4133 30.7333 15.816 30.52C15.368 30.3493 14.9307 30.1573 14.504 29.944C14.0987 29.7093 13.6507 29.5493 13.16 29.464C13.0533 28.7173 12.904 27.9067 12.712 27.032C12.52 26.136 12.424 25.3253 12.424 24.6C12.424 24.28 12.616 24.12 13 24.12C13.2773 24.12 13.4587 24.1947 13.544 24.344C13.6507 24.472 13.7253 24.6533 13.768 24.888C13.8107 25.1653 13.8533 25.432 13.896 25.688C13.96 25.944 14.0347 26.2107 14.12 26.488C14.5253 27.7893 15.1867 28.696 16.104 29.208C17.0427 29.6987 18.1627 29.9973 19.464 30.104V19.736C18.6533 19.3307 17.832 18.936 17 18.552C16.3387 18.232 15.6667 17.816 14.984 17.304C14.3227 16.792 13.768 16.1947 13.32 15.512C12.8933 14.8293 12.68 14.0827 12.68 13.272C12.68 11.9707 13 10.904 13.64 10.072C14.3013 9.21867 15.144 8.568 16.168 8.12C17.2133 7.672 18.312 7.40533 19.464 7.32V5.144H20.616V7.352C21.2133 7.37333 21.768 7.45867 22.28 7.608C22.8133 7.75733 23.3467 7.96 23.88 8.216C24.2 8.36533 24.5733 8.472 25 8.536C25.4267 8.6 25.8107 8.65333 26.152 8.696C26.1733 9.016 26.2053 9.42133 26.248 9.912C26.2907 10.3813 26.344 10.8613 26.408 11.352C26.472 11.8213 26.536 12.2053 26.6 12.504C26.664 12.6533 26.696 12.824 26.696 13.016C26.696 13.336 26.6107 13.5493 26.44 13.656C26.2693 13.7413 26.0453 13.784 25.768 13.784C25.5973 13.784 25.4693 13.7627 25.384 13.72C25.32 13.6773 25.2667 13.5813 25.224 13.432C25.16 13.1333 25.1067 12.8347 25.064 12.536C25.0213 12.2373 24.9573 11.9493 24.872 11.672C24.5947 10.6907 24.0507 9.88 23.24 9.24C22.4507 8.6 21.576 8.17333 20.616 7.96V17.368C21.4693 17.752 22.3227 18.1573 23.176 18.584C24.0507 18.9893 24.8507 19.4693 25.576 20.024C26.3013 20.5787 26.8773 21.2507 27.304 22.04C27.752 22.808 27.976 23.7467 27.976 24.856Z" fill="white"/>
</g>
<defs>
<clipPath id="clip0_108_9">
<rect width="40" height="37" fill="white"/>
</clipPath>
</defs>
</svg>
